<?xml version="1.0"?>

<!-- Generator: Adobe Illustrator 13.0.0, SVG Export Plug-In . SVG Version: 6.00 Build 14948) --> <svg version="1.0" id="svg3918" inkscape:export-filename="E:\Pino\Documentos\UFRJ\SBEB\pagina\images\Sbeb.png" inkscape:output_extension="org.inkscape.output.svg.inkscape" sodipodi:version="0.32" inkscape:export-ydpi="90" inkscape:export-xdpi="90" sodipodi:docname="Sbeb.svg" sodipodi:docbase="C:\Documents and Settings\user\My Documents\Pino\SBEB\Diretoria" inkscape:version="0.45.1" xmlns:rdf="http://www.w3.org/1999/02/22-rdf-syntax-ns#" xmlns:svg="http://www.w3.org/2000/svg" xmlns:sodipodi="http://sodipodi.sourceforge.net/DTD/sodipodi-0.dtd" xmlns:inkscape="http://www.inkscape.org/namespaces/inkscape" xmlns:dc="http://purl.org/dc/elements/1.1/" xmlns:cc="http://web.resource.org/cc/" xmlns="http://www.w3.org/2000/svg" xmlns:xlink="http://www.w3.org/1999/xlink" x="0px" y="0px" width="324" height="222" viewBox="0 0 324 222" enable-background="new 0 0 324 222" xml:space="preserve">
<sodipodi:namedview width="945px" height="652.5px" id="base" inkscape:guide-bbox="true" inkscape:current-layer="svg3918" inkscape:window-y="22" inkscape:window-x="44" inkscape:window-width="1024" inkscape:pageshadow="2" inkscape:pageopacity="0.0" inkscape:window-height="712" showguides="true" inkscape:cy="111" inkscape:cx="162" inkscape:zoom="2.3243243" pagecolor="#ffffff" bordercolor="#666666" borderopacity="1.0" objecttolerance="10.0" gridtolerance="10.0" guidetolerance="10.0"> <sodipodi:guide id="guide4935" position="23.937939" orientation="horizontal"></sodipodi:guide>
</sodipodi:namedview>
<rect id="rect2211" x="0.86" y="0.43" fill="#FFFFFF" width="324.001" height="222"></rect>
<path id="text3927" sodipodi:nodetypes="cscccccccsssssccszzzzzzzscscccssscccccssscccccssscsssccccccccccccccccccssscccccssscccccssscssscc" d=" M44.755,195.875c-5.432,2.004-18.529,2.867-22.492,2.404s-7.437,0.108-10.42-0.866l0,0V170.34c1.246,0.195,3.072,0.535,5.477,1.023 c3.332,0.934,9.339,1.232,10.983,0.666c4.597-0.715,5.719-3.481,6.118-6.454c0.15-5.122-3.479-8.442-7.32-11.359 c-3.189-2.304-7.621-6.175-11.184-10.853c-3.563-4.679-5.344-10.478-5.344-17.397c0-9.844,2.452-18.536,9.421-24.701 c6.97-6.165,16.361-9.247,27.717-9.247c4.409,0,9.397,0.944,13.361,1.456c3.963,0.512-0.552-0.376,2.877,0.599v25.909 c-4.319-1.413,0.039-0.335-3.345-0.992c-3.385-0.657-6.346-0.987-9.352-0.987s-4.644,0.584-6.313,1.484 c-1.67,0.902-4.251,4.333-3.439,7.18c0.748,2.625,2.602,3.986,4.596,5.832c1.878,1.738,8.363,6.896,10.569,9.545 c2.104,2.525,4.739,5.334,6.32,9.025c1.616,3.772,3.081,8.963,3.081,12.737c0,3.767-0.319,13.417-5.449,20.93 M60.617,184.735 c-2.67,3.909-9.45,8.775-15.862,11.14 M105.285,119.048v15.763h6.477c2.449,0,4.431-0.804,5.945-2.412 c1.514-1.608,2.271-3.703,2.271-6.287c0-2.68-0.724-3.165-2.171-4.725s-3.462-2.339-6.045-2.339H105.285z M105.151,155.889v17.021 h7.212c2.805,0,4.054-0.84,5.612-2.521s2.338-3.146,2.338-6.266c0-3.07-0.791-3.849-2.372-5.603 c-1.58-1.755-2.817-2.632-5.578-2.632H105.151z M77.561,197.967V94.095h44.086c8.461,0,14.325,2.424,19.313,7.273 c4.987,4.849,7.481,11.391,7.481,19.626c0,4.971-1.024,9.296-3.072,12.975c-2.049,3.68-5.233,6.956-9.553,9.832 c4.987,2.437,8.717,5.726,11.188,9.868s3.707,9.137,3.708,14.984c-0.001,8.771-2.772,15.851-8.316,21.235 c-5.545,5.385-12.065,8.077-21.283,8.077H77.561z M164.107,197.967V94.095h57.042l5.611,27.003H191.3v10.743h22.84v27.293H191.3 v11.854h37.265l-5.878,26.978H164.107z M267.196,119.048v15.763h7.411c2.449,0,3.964-0.804,5.478-2.412 c1.515-1.608,2.271-3.703,2.271-6.287c0-2.68-0.724-3.165-2.171-4.725s-2.996-2.339-5.578-2.339H267.196z M267.063,155.422v17.723 h8.145c2.806,0,3.82-0.841,5.379-2.521c1.559-1.682,2.338-3.381,2.338-6.5c0-3.07-0.79-4.315-2.371-6.07 c-1.581-1.754-2.585-2.631-5.346-2.631H267.063z M240.174,197.967V94.095h44.319c8.461,0,13.895,2.424,18.882,7.273 c4.988,4.849,7.481,11.391,7.481,19.626c0,4.971-1.024,9.296-3.072,12.975c-2.049,3.68-5.232,6.956-9.553,9.832 c4.988,2.437,8.718,5.726,11.189,9.868c2.471,4.143,3.707,9.137,3.707,14.984c0,8.771-2.772,15.851-8.316,21.235 s-11.635,8.077-20.853,8.077H240.174z"></path>
<path id="rect3963" sodipodi:nodetypes="cccccccc" fill="#4000FF" d="M11.154,51.082V12.075h300.798v38.023H273.04l-6.447,21.684 l-13.828-45.93l-9.02,25.394"></path>
</svg>
