<?xml version="1.0"?>
<svg version="1.1" viewBox="0.0 0.0 960.0 540.0" fill="none" stroke="none" stroke-linecap="square" stroke-miterlimit="10" xmlns:xlink="http://www.w3.org/1999/xlink" xmlns="http://www.w3.org/2000/svg" width="960.0" height="540.0"><clipPath id="g1e254a343d3_0_0.0"><path d="m0 0l960.0 0l0 540.0l-960.0 0l0 -540.0z" clip-rule="nonzero"></path></clipPath><g clip-path="url(#g1e254a343d3_0_0.0)"><path fill="#ffffff" d="m0 0l960.0 0l0 540.0l-960.0 0z" fill-rule="evenodd"></path><path fill="#000000" fill-opacity="0.0" d="m32.72441 225.81102l894.55115 0l0 88.377945l-894.55115 0z" fill-rule="evenodd"></path><path fill="#000000" d="m214.6233 292.94l0 -36.28125l-12.546875 0l0 -11.078125l37.703125 0l0 11.078125l-12.546875 0l0 36.28125l-12.609375 0zm52.40895 -13.890625l-17.171875 0q0.15625 1.859375 0.875 2.890625q0.71875 1.015625 2.265625 1.46875q1.5625 0.4375 4.3125 0.4375q3.421875 0 8.0 -1.078125l0 9.71875q-2.6875 0.609375 -4.9375 0.875q-2.234375 0.28125 -4.671875 0.28125q-6.546875 0 -10.578125 -1.921875q-4.03125 -1.921875 -5.90625 -5.96875q-1.875 -4.046875 -1.875 -10.609375q0 -5.65625 1.765625 -9.6875q1.78125 -4.03125 5.25 -6.15625q3.484375 -2.140625 8.46875 -2.140625q7.046875 0 10.625 4.75q3.578125 4.734375 3.578125 13.625l0 3.515625zm-14.265625 -13.953125q-1.09375 0 -1.703125 0.546875q-0.59375 0.546875 -0.90625 1.984375q-0.296875 1.4375 -0.328125 4.125l5.75 0q0 -2.6875 -0.296875 -4.125q-0.28125 -1.4375 -0.875 -1.984375q-0.578125 -0.546875 -1.640625 -0.546875zm33.342316 28.546875q-8.21875 0 -12.53125 -4.5q-4.296875 -4.515625 -4.296875 -13.734375q0 -9.34375 4.734375 -13.796875q4.734375 -4.453125 13.25 -4.453125q3.4530945 0 6.5312195 0.578125l0 9.984375q-2.15625 -0.3125 -4.09375 -0.3125q-3.9999695 0 -5.7812195 1.8125q-1.78125 1.796875 -1.78125 5.984375q0 3.109375 0.734375 4.90625q0.734375 1.78125 2.203125 2.546875q1.484375 0.75 3.8437195 0.75q2.09375 0 4.875 -0.90625l0 9.984375q-1.734375 0.578125 -3.75 0.859375q-2.0155945 0.296875 -3.9374695 0.296875zm11.398651 -35.90625l10.234375 0l0.890625 3.59375l0.515625 0q3.109375 -4.171875 8.453125 -4.171875q4.640625 0 7.40625 3.15625q2.765625 3.15625 2.765625 9.96875l0 22.65625l-12.34375 0l0 -21.703125q0 -1.71875 -0.65625 -2.421875q-0.65625 -0.703125 -1.84375 -0.703125q-0.890625 0 -1.71875 0.359375q-0.8125 0.34375 -1.359375 0.921875l0 23.546875l-12.34375 0l0 -35.203125zm49.72986 35.90625q-7.71875 0 -11.765625 -4.46875q-4.046875 -4.484375 -4.046875 -13.578125q0 -9.3125 4.046875 -13.875q4.046875 -4.5625 11.765625 -4.5625q7.640625 0 11.71875 4.640625q4.078125 4.640625 4.078125 13.671875q0 9.15625 -4.046875 13.671875q-4.046875 4.5 -11.75 4.5zm0 -9.09375q1.171875 0 1.84375 -0.671875q0.671875 -0.671875 1.0 -2.59375q0.34375 -1.9375 0.34375 -5.6875q0 -3.84375 -0.375 -5.875q-0.359375 -2.03125 -1.03125 -2.75q-0.671875 -0.71875 -1.78125 -0.71875q-1.125 0 -1.796875 0.71875q-0.671875 0.71875 -1.046875 2.71875q-0.359375 2.0 -0.359375 5.78125q0 3.8125 0.328125 5.78125q0.34375 1.953125 1.015625 2.625q0.671875 0.671875 1.859375 0.671875zm19.902313 8.390625l0 -51.71875l12.34375 0l0 51.71875l-12.34375 0zm31.937775 0.703125q-7.71875 0 -11.765625 -4.46875q-4.046875 -4.484375 -4.046875 -13.578125q0 -9.3125 4.046875 -13.875q4.046875 -4.5625 11.765625 -4.5625q7.640625 0 11.71875 4.640625q4.078125 4.640625 4.078125 13.671875q0 9.15625 -4.046875 13.671875q-4.046875 4.5 -11.75 4.5zm0 -9.09375q1.171875 0 1.84375 -0.671875q0.671875 -0.671875 1.0 -2.59375q0.34375 -1.9375 0.34375 -5.6875q0 -3.84375 -0.375 -5.875q-0.359375 -2.03125 -1.03125 -2.75q-0.671875 -0.71875 -1.78125 -0.71875q-1.125 0 -1.796875 0.71875q-0.671875 0.71875 -1.046875 2.71875q-0.359375 2.0 -0.359375 5.78125q0 3.8125 0.328125 5.78125q0.34375 1.953125 1.015625 2.625q0.671875 0.671875 1.859375 0.671875zm31.737976 23.109375q-2.4375 0 -5.15625 -0.28125q-2.71875 -0.265625 -5.015625 -0.8125l0 -9.71875q4.515625 1.15625 9.015625 1.15625q3.90625 0 5.765625 -1.65625q1.859375 -1.640625 1.859375 -5.515625l0 -1.734375l-0.578125 0q-1.03125 2.015625 -2.8125 3.09375q-1.765625 1.0625 -4.171875 1.0625q-3.03125 0 -5.6875 -1.859375q-2.65625 -1.875 -4.3125 -5.765625q-1.640625 -3.890625 -1.640625 -9.640625q0 -9.21875 4.53125 -14.0q4.53125 -4.796875 14.21875 -4.828125q3.265625 0 6.65625 0.546875q3.390625 0.546875 6.140625 1.5625l0 29.3125q0 6.703125 -2.09375 10.921875q-2.09375 4.21875 -6.234375 6.1875q-4.140625 1.96875 -10.484375 1.96875zm4.421875 -24.578125q1.171875 0 2.046875 -0.375l0 -16.0625q-1.03125 -0.140625 -1.609375 -0.140625q-1.65625 0 -2.75 0.75q-1.078125 0.734375 -1.65625 2.578125q-0.578125 1.828125 -0.578125 5.0625q0 3.296875 0.46875 5.0625q0.484375 1.75 1.4375 2.4375q0.96875 0.6875 2.640625 0.6875zm19.390564 9.859375l0 -35.203125l12.40625 0l0 35.203125l-12.40625 0zm6.203125 -38.71875q-3.8125 0 -5.65625 -1.71875q-1.828125 -1.734375 -1.828125 -4.9375q0 -3.203125 1.828125 -4.921875q1.84375 -1.734375 5.65625 -1.734375q3.8125 0 5.640625 1.734375q1.84375 1.71875 1.84375 4.921875q0 3.203125 -1.84375 4.9375q-1.828125 1.71875 -5.640625 1.71875zm23.173676 2.9375q5.53125 0 8.875 1.46875q3.34375 1.453125 4.9375 4.75q1.609375 3.296875 1.609375 8.890625l0 20.671875l-9.984375 0l-0.890625 -3.578125l-0.515625 0q-2.015625 4.28125 -7.484375 4.28125q-2.953125 0 -5.25 -1.296875q-2.28125 -1.296875 -3.546875 -3.671875q-1.265625 -2.390625 -1.265625 -5.53125q0 -5.375 3.296875 -8.265625q3.296875 -2.890625 10.65625 -3.375l3.015625 -0.1875q-0.0625 -1.640625 -0.609375 -2.5625q-0.546875 -0.9375 -1.8125 -1.359375q-1.265625 -0.4375 -3.53125 -0.4375q-1.921875 0 -4.125 0.296875q-2.1875 0.28125 -4.125 0.859375l0 -9.734375q2.359375 -0.578125 5.234375 -0.890625q2.890625 -0.328125 5.515625 -0.328125zm1.078125 27.46875q1.34375 0 2.375 -0.78125l0 -5.59375l-1.46875 0.09375q-1.734375 0.09375 -2.640625 0.984375q-0.890625 0.875 -0.890625 2.40625q0 1.40625 0.71875 2.15625q0.734375 0.734375 1.90625 0.734375zm28.615479 9.015625q-5.5000305 0 -9.8594055 -1.53125l0 -9.671875q4.421875 1.546875 9.5937805 1.546875q2.1875 0 3.046875 -0.515625q0.859375 -0.515625 0.859375 -1.46875q0 -0.609375 -0.34375 -0.9375q-0.328125 -0.34375 -1.125 -0.546875l-5.1250305 -1.203125q-3.890625 -0.90625 -6.015625 -3.453125q-2.109375 -2.5625 -2.109375 -6.984375q0 -3.578125 1.78125 -6.203125q1.78125 -2.625 5.28125 -4.0625q3.5000305 -1.453125 8.5625305 -1.453125q4.3125 0 8.25 0.96875l0 9.65625q-3.546875 -0.953125 -7.546875 -0.953125q-5.1875 0 -5.1875 2.109375q0 0.546875 0.359375 0.859375q0.375 0.296875 1.171875 0.484375l5.125 1.21875q3.96875 0.953125 6.015625 3.375q2.046875 2.421875 2.046875 6.859375q0 3.65625 -1.8125 6.34375q-1.796875 2.6875 -5.140625 4.125q-3.34375 1.4375 -7.828125 1.4375zm44.54718 -0.0625q-6.25 0 -12.296875 -0.703125l0 -46.34375q7.265625 -1.59375 14.015625 -1.59375q12.15625 0 18.109375 5.921875q5.953125 5.921875 5.953125 18.390625q0 8.421875 -2.828125 13.796875q-2.828125 5.375 -8.53125 7.953125q-5.6875 2.578125 -14.421875 2.578125zm3.453125 -10.4375q3.09375 0 5.140625 -1.28125q2.0625 -1.28125 3.15625 -4.3125q1.109375 -3.046875 1.109375 -8.296875q0 -5.234375 -1.15625 -8.3125q-1.15625 -3.078125 -3.265625 -4.34375q-2.109375 -1.28125 -5.171875 -1.28125q-0.71875 0 -1.59375 0.09375q-0.875 0.09375 -1.421875 0.21875l0 27.453125q1.40625 0.0625 3.203125 0.0625zm26.561646 9.796875l0 -35.203125l12.40625 0l0 35.203125l-12.40625 0zm6.203125 -38.71875q-3.8125 0 -5.65625 -1.71875q-1.828125 -1.734375 -1.828125 -4.9375q0 -3.203125 1.828125 -4.921875q1.84375 -1.734375 5.65625 -1.734375q3.8125 0 5.640625 1.734375q1.84375 1.71875 1.84375 4.921875q0 3.203125 -1.84375 4.9375q-1.828125 1.71875 -5.640625 1.71875zm22.720459 53.4375q-2.4375 0 -5.15625 -0.28125q-2.71875 -0.265625 -5.015625 -0.8125l0 -9.71875q4.515625 1.15625 9.015625 1.15625q3.90625 0 5.765625 -1.65625q1.859375 -1.640625 1.859375 -5.515625l0 -1.734375l-0.578125 0q-1.03125 2.015625 -2.8125 3.09375q-1.765625 1.0625 -4.171875 1.0625q-3.03125 0 -5.6875 -1.859375q-2.65625 -1.875 -4.3125 -5.765625q-1.640625 -3.890625 -1.640625 -9.640625q0 -9.21875 4.53125 -14.0q4.53125 -4.796875 14.21875 -4.828125q3.265625 0 6.65625 0.546875q3.390625 0.546875 6.140625 1.5625l0 29.3125q0 6.703125 -2.09375 10.921875q-2.09375 4.21875 -6.234375 6.1875q-4.140625 1.96875 -10.484375 1.96875zm4.421875 -24.578125q1.171875 0 2.046875 -0.375l0 -16.0625q-1.03125 -0.140625 -1.609375 -0.140625q-1.65625 0 -2.75 0.75q-1.078125 0.734375 -1.65625 2.578125q-0.578125 1.828125 -0.578125 5.0625q0 3.296875 0.46875 5.0625q0.484375 1.75 1.4375 2.4375q0.96875 0.6875 2.640625 0.6875zm19.390625 9.859375l0 -35.203125l12.40625 0l0 35.203125l-12.40625 0zm6.203125 -38.71875q-3.8125 0 -5.65625 -1.71875q-1.828125 -1.734375 -1.828125 -4.9375q0 -3.203125 1.828125 -4.921875q1.84375 -1.734375 5.65625 -1.734375q3.8125 0 5.640625 1.734375q1.84375 1.71875 1.84375 4.921875q0 3.203125 -1.84375 4.9375q-1.828125 1.71875 -5.640625 1.71875zm25.532959 13.125l0 10.546875q0 2.015625 0.390625 3.125q0.40625 1.109375 1.328125 1.59375q0.9375 0.46875 2.640625 0.46875q0.859375 0 2.234375 -0.15625l0.765625 -0.09375l0 9.984375q-1.34375 0.34375 -3.0625 0.546875q-1.703125 0.21875 -3.328125 0.21875q-6.5625 0 -9.9375 -3.421875q-3.375 -3.421875 -3.375 -10.84375l0 -11.96875l-4.484375 0l0 -9.609375l4.484375 0l2.296875 -12.15625l10.046875 0l0 12.15625l7.359375 0l0 9.609375l-7.359375 0zm22.85669 -10.1875q5.53125 0 8.875 1.46875q3.34375 1.453125 4.9375 4.75q1.609375 3.296875 1.609375 8.890625l0 20.671875l-9.984375 0l-0.890625 -3.578125l-0.515625 0q-2.015625 4.28125 -7.484375 4.28125q-2.953125 0 -5.25 -1.296875q-2.28125 -1.296875 -3.546875 -3.671875q-1.265625 -2.390625 -1.265625 -5.53125q0 -5.375 3.296875 -8.265625q3.296875 -2.890625 10.65625 -3.375l3.015625 -0.1875q-0.0625 -1.640625 -0.609375 -2.5625q-0.546875 -0.9375 -1.8125 -1.359375q-1.265625 -0.4375 -3.53125 -0.4375q-1.921875 0 -4.125 0.296875q-2.1875 0.28125 -4.125 0.859375l0 -9.734375q2.359375 -0.578125 5.234375 -0.890625q2.890625 -0.328125 5.515625 -0.328125zm1.078125 27.46875q1.34375 0 2.375 -0.78125l0 -5.59375l-1.46875 0.09375q-1.734375 0.09375 -2.640625 0.984375q-0.890625 0.875 -0.890625 2.40625q0 1.40625 0.71875 2.15625q0.734375 0.734375 1.90625 0.734375zm19.209229 8.3125l0 -35.203125l12.40625 0l0 35.203125l-12.40625 0zm6.203125 -38.71875q-3.8125 0 -5.65625 -1.71875q-1.828125 -1.734375 -1.828125 -4.9375q0 -3.203125 1.828125 -4.921875q1.84375 -1.734375 5.65625 -1.734375q3.8125 0 5.640625 1.734375q1.84375 1.71875 1.84375 4.921875q0 3.203125 -1.84375 4.9375q-1.828125 1.71875 -5.640625 1.71875zm20.611206 39.421875q-5.5 0 -9.859375 -1.53125l0 -9.671875q4.421875 1.546875 9.59375 1.546875q2.1875 0 3.046875 -0.515625q0.859375 -0.515625 0.859375 -1.46875q0 -0.609375 -0.34375 -0.9375q-0.328125 -0.34375 -1.125 -0.546875l-5.125 -1.203125q-3.890625 -0.90625 -6.015625 -3.453125q-2.109375 -2.5625 -2.109375 -6.984375q0 -3.578125 1.78125 -6.203125q1.78125 -2.625 5.28125 -4.0625q3.5 -1.453125 8.5625 -1.453125q4.3125 0 8.25 0.96875l0 9.65625q-3.546875 -0.953125 -7.546875 -0.953125q-5.1875 0 -5.1875 2.109375q0 0.546875 0.359375 0.859375q0.375 0.296875 1.171875 0.484375l5.125 1.21875q3.96875 0.953125 6.015625 3.375q2.046875 2.421875 2.046875 6.859375q0 3.65625 -1.8125 6.34375q-1.796875 2.6875 -5.140625 4.125q-3.34375 1.4375 -7.828125 1.4375z" fill-rule="nonzero"></path></g></svg>